{"title":"Mr.Robot.S01E09.HDTV.480p.x264.AAC-VYTO [P2PDL]","uid":12253749,"size":173218223,"categoryP":"video","categoryS":"hd___tv_shows","magnet":"?xt=urn:btih:2471ff9d5e705cccb0c0cdcd92275c5728a6112c&amp;dn=Mr.Robot.S01E09.HDTV.480p.x264.AAC-VYTO+%5BP2PDL%5D&amp;tr=udp%3A%2F%2Ftracker.openbittorrent.com%3A80&amp;tr=udp%3A%2F%2Fopen.demonii.com%3A1337&amp;tr=udp%3A%2F%2Ftracker.coppersurfer.tk%3A6969&amp;tr=udp%3A%2F%2Fexodus.desync.com%3A6969","seeders":2,"leechers":1,"uploader":"ValidusVyto","files":6,"time":1440029128,"description":"____    ____ ____    ____ .___________.  ______   \n     /   /      /   / |           | /  __    \n    /   /      /   /  `---|  |----`|  |  |  | \n        /     _    _/       |  |     |  |  |  | \n       /        |  |         |  |     |  `--'  | \n    __/         |__|         |__|      ______/  \n                                                  \nPresenting Small Encodes with quality for years!\n                                                                                                   \n                                                                                                   \n\nMr.Robot.S01E09.HDTV.480p.x264.AAC-VYTO\n\n\nGeneral\nFormat                         : MPEG-4\nFile size                      : 161 MiB\nDuration                       : 48mn 29s\nOverall bit rate               : 463 Kbps\n\nVide\nFormat                         : AVC\nBit rate                       : 428 Kbps\nWidth                          : 720 pixels\nHeight                         : 400 pixels\nDisplay aspect ratio           : 16:9\nFrame rate mode                : Constant\nFrame rate                     : 23.976 fps\nBit depth                      : 8 bits\nStream size                    : 148 MiB (92%)\nWriting library                : x264 core 148 r2579 \n\nAudio\nFormat                         : AAC\nBit rate mode                  : Variable\nBit rate                       : 32.0 Kbps\nChannel(s)                     : 2 channels \nChannel positions              : Front: L R \nSampling rate                  : 48.0 KHz \nCompression mode               : Lossy\nStream size                    : 11.1 MiB (7%)\n\n\nScreenshots:\n &lt;a href=&quot;\nhttp://ititli.com/MW&quot; rel=&quot;nofollow&quot; target=&quot;_NEW&quot;&gt;\nhttp://ititli.com/MW&lt;/a&gt; &lt;a href=&quot;\nhttp://ititli.com/Mg&quot; rel=&quot;nofollow&quot; target=&quot;_NEW&quot;&gt;\nhttp://ititli.com/Mg&lt;/a&gt; &lt;a href=&quot;\nhttp://ititli.com/Mn&quot; rel=&quot;nofollow&quot; target=&quot;_NEW&quot;&gt;\nhttp://ititli.com/Mn&lt;/a&gt; &lt;a href=&quot;\nhttp://ititli.com/Mw&quot; rel=&quot;nofollow&quot; target=&quot;_NEW&quot;&gt;\nhttp://ititli.com/Mw&lt;/a&gt; &lt;a href=&quot;\nhttp://ititli.com/M2&quot; rel=&quot;nofollow&quot; target=&quot;_NEW&quot;&gt;\nhttp://ititli.com/M2&lt;/a&gt; &lt;a href=&quot;\nhttp://ititli.com/M6&quot; rel=&quot;nofollow&quot; target=&quot;_NEW&quot;&gt;\nhttp://ititli.com/M6&lt;/a&gt; &lt;a href=&quot;\nhttp://ititli.com/M8&quot; rel=&quot;nofollow&quot; target=&quot;_NEW&quot;&gt;\nhttp://ititli.com/M8&lt;/a&gt; &lt;a href=&quot;\nhttp://ititli.com/Me&quot; rel=&quot;nofollow&quot; target=&quot;_NEW&quot;&gt;\nhttp://ititli.com/Me&lt;/a&gt; &lt;a href=&quot;\nhttp://ititli.com/Mj&quot; rel=&quot;nofollow&quot; target=&quot;_NEW&quot;&gt;\nhttp://ititli.com/Mj&lt;/a&gt; &lt;a href=&quot;\nhttp://ititli.com/Mk&quot; rel=&quot;nofollow&quot; target=&quot;_NEW&quot;&gt;\nhttp://ititli.com/Mk&lt;/a&gt; &lt;a href=&quot;\nhttp://ititli.com/Mo&quot; rel=&quot;nofollow&quot; target=&quot;_NEW&quot;&gt;\nhttp://ititli.com/Mo&lt;/a&gt; &lt;a href=&quot;\nhttp://ititli.com/MG&quot; rel=&quot;nofollow&quot; target=&quot;_NEW&quot;&gt;\nhttp://ititli.com/MG&lt;/a&gt;\n\n----------------------------------------------------------------------------------------------------\n\n\nEncoder Notes: Looking For Early Access To Anything You Can Provide DVDScr, R5, DVDR, BluRay, Direct\nAudio, Music Releases and Seedboxes. If You Got anything to offer please contact us.\n\nSupport us by donating BC - 1FgwdzPsd1y25Gea8wP1qni35uGCtmkRCD","torrent":{"xt":"urn:btih:2471ff9d5e705cccb0c0cdcd92275c5728a6112c","amp;dn":"Mr.Robot.S01E09.HDTV.480p.x264.AAC-VYTO+%5BP2PDL%5D","amp;tr":["udp%3A%2F%2Ftracker.openbittorrent.com%3A80","udp%3A%2F%2Fopen.demonii.com%3A1337","udp%3A%2F%2Ftracker.coppersurfer.tk%3A6969","udp%3A%2F%2Fexodus.desync.com%3A6969"],"infoHash":"2471ff9d5e705cccb0c0cdcd92275c5728a6112c","infoHashBuffer":{"type":"Buffer","data":[36,113,255,157,94,112,92,204,176,192,205,205,146,39,92,87,40,166,17,44]},"announce":[],"urlList":[]}}